<?xml version="1.0" encoding="utf-8"?>
<!-- Generator: Adobe Illustrator 17.1.0, SVG Export Plug-In . SVG Version: 6.00 Build 0)  -->
<!DOCTYPE svg PUBLIC "-//W3C//DTD SVG 1.1//EN" "http://www.w3.org/Graphics/SVG/1.1/DTD/svg11.dtd">
<svg version="1.1" id="Layer_1" xmlns="http://www.w3.org/2000/svg" xmlns:xlink="http://www.w3.org/1999/xlink" x="0px" y="0px"
	 viewBox="0 0 612 792" 
	 enable-background="new 0 0 612 792" xml:space="preserve"
	 width="300"
	 height="300">
<g transform="matrix(1.8,0,0,1.8,-166.5,-431.7)">
	<path fill="none" stroke="#000000" stroke-width="5" stroke-miterlimit="10" d="M 478 457.9 c -0.1 118.8 -96.6 215.1 -215.4 215.1 C 143.6 673 47.1 576.3 47.4 457.3 c 0.3 -118.8 96.8 -215 215.7 -214.8 C 381.9 242.7 478.1 339.2 478 457.9 z M 374.3 344 c -3.6 0 -6.6 -0.2 -9.5 0 c -3.1 0.2 -4.3 -0.8 -5.6 -3.9 c -7.9 -20 -19.9 -37 -38 -49.1 c -22.4 -15 -47 -20.9 -73.9 -16.2 c -21.2 3.7 -39 13.6 -53.9 28.5 c -10.4 10.5 -18.7 22.9 -23.3 37.2 c -0.9 2.7 -2.3 3.6 -5 3.4 c -3.3 -0.2 -6.5 -0.1 -9.5 -0.1 c -2.9 8.1 6.7 12.5 4.6 19.9 c -0.1 0.3 0.9 0.9 1.3 1.4 c 0.9 1.4 2.1 2.7 2.4 4.2 c 1.5 7.4 3.9 14.9 3.9 22.3 c 0.3 55.1 0.2 110.3 0.1 165.4 c 0 1.4 -0.1 3.4 -0.9 4.1 c -4 3.2 -5.9 7.3 -5.1 12.4 c -2.3 0.2 -3.9 0.3 -5.8 0.5 c -0.1 2.5 -0.2 4.8 -0.4 7.7 c -5.1 -0.9 -5 2.5 -4.8 5.9 c 0 0.8 0.2 2.1 -0.3 2.4 c -5.6 3.9 -1.3 9.2 -2.8 13.9 c 78.5 0 156.2 0 233.9 0 c 1.7 -10.1 1.1 -11.9 -4.1 -14 c -1.2 -3.1 2.3 -8.2 -4.1 -8.7 c -0.2 -2.5 -0.3 -4.8 -0.5 -7.1 c -2.1 -0.3 -3.8 -0.5 -4.4 -0.6 c -1.4 -3.6 -2.3 -6.5 -3.6 -9.3 c -1.1 -2.4 -3.6 -4.5 -3.6 -6.8 c -0.2 -55.1 -0.2 -110.3 -0.1 -165.4 c 0 -1.1 0 -3.1 0.5 -3.2 c 3.8 -1.3 2.1 -4.3 2.4 -6.7 c 0.3 -2.1 0.7 -4.2 0.6 -6.4 c -0.3 -6.7 7.1 -11.6 4.6 -18.9 c -0.2 -0.6 0.6 -2.3 1.3 -2.5 C 376.2 352.5 374.1 348.3 374.3 344 z"/>
	<path fill="none" stroke="#000000" stroke-width="5" stroke-miterlimit="10" d="M 247.1 573.9 c -17.1 0 -34.5 0 -52.7 0 c 0 -1.9 0.2 -3.8 -0.1 -5.7 c -0.1 -1.1 -0.7 -2.5 -1.6 -3.1 c -3.3 -2.6 -4.5 -5.7 -4.4 -9.9 c 0.1 -54 0.1 -108 0.1 -162 c 0 -2.2 -1.4 -5.2 2.4 -6.1 c 0.4 -0.1 0.6 -2.1 0.5 -3.3 c -0.8 -8.4 0.9 -15.9 7.1 -22 c 0.8 -0.7 2.1 -1.2 3.2 -1.2 c 14.2 -0.1 28.3 -0.1 43.1 -0.1 c 2.2 4.5 4.4 9.1 6.6 13.7 c 0.2 0.4 0.5 0.9 0.5 1.4 c 0.7 8.2 2 16.5 2 24.7 c 0.2 51.8 0.1 103.7 0.1 155.5 c 0 4 -0.6 7.1 -4.3 9.8 C 247.9 566.9 248 570.8 247.1 573.9 z"/>
	<path fill="none" stroke="#000000" stroke-width="5" stroke-miterlimit="10" d="M 335 573.8 c -18 0 -35.6 0 -53.6 0 c 0.5 -4.4 0 -8.2 -4.3 -10.7 c -1.2 -0.7 -1.7 -3.5 -1.7 -5.4 c -0.1 -55.5 -0.2 -111 0.1 -166.5 c 0 -7.1 2.1 -14.3 3.9 -21.3 c 1.7 -6.7 6 -9.5 12.8 -9.5 c 10.3 0 20.7 0 31 0 c 7.4 0 10.5 1.9 12.6 9.2 c 1.3 4.4 1.3 9 2.2 13.5 c 0.4 1.9 1.6 3.7 2.3 5.6 c 0.4 1.2 0.6 2.5 0.6 3.8 c 0 54.7 0 109.3 0 164 c 0 1.9 -0.4 4.7 -1.6 5.4 C 334.7 564.9 334.7 569 335 573.8 z"/>
	<path fill="none" stroke="#000000" stroke-width="5" stroke-miterlimit="10" d="M 182.5 343.7 c 9.6 -29.3 40.6 -54.3 72.9 -57.3 c 48.2 -4.5 81.3 27.9 91.6 57.3 C 292.1 343.7 237.4 343.7 182.5 343.7 z"/>
</g>
<circle transform="matrix(1.8,0,0,1.8,-166.6,-430.6)" fill="none" stroke="#000000" stroke-width="5" stroke-miterlimit="10" cx="262.7" cy="457.1" r="199.6"/>
</svg>
