<?xml version="1.0" encoding="utf-8"?>
<!-- Generator: Adobe Illustrator 17.1.0, SVG Export Plug-In . SVG Version: 6.00 Build 0)  -->
<!DOCTYPE svg PUBLIC "-//W3C//DTD SVG 1.1//EN" "http://www.w3.org/Graphics/SVG/1.1/DTD/svg11.dtd">
<svg version="1.1" id="Layer_1" xmlns="http://www.w3.org/2000/svg" xmlns:xlink="http://www.w3.org/1999/xlink" x="0px" y="0px"
	 viewBox="0 0 612 792" enable-background="new 0 0 612 792" xml:space="preserve">
<g>
	<path fill="none" stroke="#000000" stroke-width="5" stroke-miterlimit="10" d="M522.8,396.7c-0.1,118.8-96.6,215.1-215.4,215.1
		C188.4,611.8,91.9,515,92.2,396c0.3-118.8,96.8-215,215.7-214.8C426.7,181.4,522.9,277.9,522.8,396.7z M419.1,282.8
		c-3.6,0-6.6-0.2-9.5,0c-3.1,0.2-4.3-0.8-5.6-3.9c-7.9-20-19.9-37-38-49.1c-22.4-15-47-20.9-73.9-16.2c-21.2,3.7-39,13.6-53.9,28.5
		c-10.4,10.5-18.7,22.9-23.3,37.2c-0.9,2.7-2.3,3.6-5,3.4c-3.3-0.2-6.5-0.1-9.5-0.1c-2.9,8.1,6.7,12.5,4.6,19.9
		c-0.1,0.3,0.9,0.9,1.3,1.4c0.9,1.4,2.1,2.7,2.4,4.2c1.5,7.4,3.9,14.9,3.9,22.3c0.3,55.1,0.2,110.3,0.1,165.4c0,1.4-0.1,3.4-0.9,4.1
		c-4,3.2-5.9,7.3-5.1,12.4c-2.3,0.2-3.9,0.3-5.8,0.5c-0.1,2.5-0.2,4.8-0.4,7.7c-5.1-0.9-5,2.5-4.8,5.9c0,0.8,0.2,2.1-0.3,2.4
		c-5.6,3.9-1.3,9.2-2.8,13.9c78.5,0,156.2,0,233.9,0c1.7-10.1,1.1-11.9-4.1-14c-1.2-3.1,2.3-8.2-4.1-8.7c-0.2-2.5-0.3-4.8-0.5-7.1
		c-2.1-0.3-3.8-0.5-4.4-0.6c-1.4-3.6-2.3-6.5-3.6-9.3c-1.1-2.4-3.6-4.5-3.6-6.8c-0.2-55.1-0.2-110.3-0.1-165.4c0-1.1,0-3.1,0.5-3.2
		c3.8-1.3,2.1-4.3,2.4-6.7c0.3-2.1,0.7-4.2,0.6-6.4c-0.3-6.7,7.1-11.6,4.6-18.9c-0.2-0.6,0.6-2.3,1.3-2.5
		C421,291.3,418.9,287.1,419.1,282.8z"/>
	<path fill="none" stroke="#000000" stroke-width="5" stroke-miterlimit="10" d="M291.9,512.6c-17.1,0-34.5,0-52.7,0
		c0-1.9,0.2-3.8-0.1-5.7c-0.1-1.1-0.7-2.5-1.6-3.1c-3.3-2.6-4.5-5.7-4.4-9.9c0.1-54,0.1-108,0.1-162c0-2.2-1.4-5.2,2.4-6.1
		c0.4-0.1,0.6-2.1,0.5-3.3c-0.8-8.4,0.9-15.9,7.1-22c0.8-0.7,2.1-1.2,3.2-1.2c14.2-0.1,28.3-0.1,43.1-0.1c2.2,4.5,4.4,9.1,6.6,13.7
		c0.2,0.4,0.5,0.9,0.5,1.4c0.7,8.2,2,16.5,2,24.7c0.2,51.8,0.1,103.7,0.1,155.5c0,4-0.6,7.1-4.3,9.8
		C292.7,505.6,292.8,509.5,291.9,512.6z"/>
	<path fill="none" stroke="#000000" stroke-width="5" stroke-miterlimit="10" d="M379.8,512.5c-18,0-35.6,0-53.6,0
		c0.5-4.4,0-8.2-4.3-10.7c-1.2-0.7-1.7-3.5-1.7-5.4c-0.1-55.5-0.2-111,0.1-166.5c0-7.1,2.1-14.3,3.9-21.3c1.7-6.7,6-9.5,12.8-9.5
		c10.3,0,20.7,0,31,0c7.4,0,10.5,1.9,12.6,9.2c1.3,4.4,1.3,9,2.2,13.5c0.4,1.9,1.6,3.7,2.3,5.6c0.4,1.2,0.6,2.5,0.6,3.8
		c0,54.7,0,109.3,0,164c0,1.9-0.4,4.7-1.6,5.4C379.5,503.6,379.5,507.8,379.8,512.5z"/>
	<path fill="none" stroke="#000000" stroke-width="5" stroke-miterlimit="10" d="M227.3,282.4c9.6-29.3,40.6-54.3,72.9-57.3
		c48.2-4.5,81.3,27.9,91.6,57.3C336.9,282.4,282.2,282.4,227.3,282.4z"/>
</g>
<circle fill="none" stroke="#000000" stroke-width="5" stroke-miterlimit="10" cx="307.5" cy="396.5" r="199.6"/>
</svg>
