<?xml version="1.0" encoding="utf-8"?>
<!-- Generator: Adobe Illustrator 17.1.0, SVG Export Plug-In . SVG Version: 6.00 Build 0)  -->
<!DOCTYPE svg PUBLIC "-//W3C//DTD SVG 1.1//EN" "http://www.w3.org/Graphics/SVG/1.1/DTD/svg11.dtd">
<svg version="1.1" id="Layer_1" xmlns="http://www.w3.org/2000/svg" xmlns:xlink="http://www.w3.org/1999/xlink" x="0px" y="0px"
	 viewBox="83.8 174.5 444.4 433.4" enable-background="new 83.8 174.5 444.4 433.4" xml:space="preserve">
<path fill="#F2F2F2" d="M306,174.5c-122.6,0-222.2,99.4-222.2,222.2c0,98.1,63.7,181.4,151.9,210.9c11.1,2,14.7-4.8,14.7-10.6v-41.5
	c-61.8,13.5-74.7-26.2-74.7-26.2c-10-25.7-24.6-32.5-24.6-32.5c-20.2-13.7,1.6-13.5,1.6-13.5c22.4,1.6,34.1,23,34.1,23
	c19.8,33.9,52,24.1,64.7,18.4c2-14.3,7.8-24.1,14.1-29.8c-49.4-5.6-101.2-24.6-101.2-109.8c0-24.3,8.7-44.1,22.9-59.6
	c-2.3-5.6-9.9-28.2,2.2-58.8c0,0,18.6-6,61.1,22.8c17.7-4.9,36.7-7.4,55.6-7.5c18.9,0.1,37.9,2.5,55.7,7.5
	c42.4-28.7,61.1-22.8,61.1-22.8c12.1,30.6,4.5,53.2,2.2,58.8c14.2,15.5,22.8,35.4,22.8,59.6c0,85.3-52,104.1-101.5,109.6
	c8,6.9,15.3,20.4,15.3,41.1c0,29.8,0,53.7,0,61c0,5.9,3.6,12.8,14.8,10.6c88.2-29.4,151.8-112.7,151.8-210.9
	C528.2,274,428.6,174.5,306,174.5z"/>
</svg>
