<?xml version="1.0" encoding="utf-8"?>
<!-- Generator: Adobe Illustrator 17.1.0, SVG Export Plug-In . SVG Version: 6.00 Build 0)  -->
<!DOCTYPE svg PUBLIC "-//W3C//DTD SVG 1.1//EN" "http://www.w3.org/Graphics/SVG/1.1/DTD/svg11.dtd">
<svg version="1.1" id="Layer_1" xmlns="http://www.w3.org/2000/svg" xmlns:xlink="http://www.w3.org/1999/xlink" x="0px" y="0px"
	 viewBox="141 219 334.7 334.9" enable-background="new 141 219 334.7 334.9" xml:space="preserve">
<path fill="#F2F2F2" d="M222.8,260.2c0,22.7-18.3,41.2-40.9,41.2S141,283,141,260.2c0-22.7,18.3-41.2,40.9-41.2
	C204.5,219,222.8,237.5,222.8,260.2z M216.8,330.6h-69.1v223.3h69.1V330.6z M327.3,330.6h-66.2v223.3h66.2c0,0,0-82.8,0-117.1
	c0-31.4,14.5-50.1,42.1-50.1c25.5,0,37.7,17.9,37.7,50.1s0,117.1,0,117.1h68.7c0,0,0-81.5,0-141.4c0-59.8-33.8-88.7-81.3-88.7
	c-47.3,0-67.3,36.9-67.3,36.9v-30.1L327.3,330.6L327.3,330.6z"/>
</svg>
