<?xml version="1.0" encoding="utf-8"?>
<!-- Generator: Adobe Illustrator 17.1.0, SVG Export Plug-In . SVG Version: 6.00 Build 0)  -->
<!DOCTYPE svg PUBLIC "-//W3C//DTD SVG 1.1//EN" "http://www.w3.org/Graphics/SVG/1.1/DTD/svg11.dtd">
<svg version="1.1" xmlns="http://www.w3.org/2000/svg" xmlns:xlink="http://www.w3.org/1999/xlink" x="0px" y="0px"
	 viewBox="0 0 435.6 435.6" enable-background="new 0 0 435.6 435.6" xml:space="preserve">
<g id="Layer_4" display="none">
	<circle display="inline" fill="#101010" cx="217.8" cy="217.8" r="215.3"/>
</g>
<g id="Layer_2">
	<path id="filling" fill="#BA0C2F" d="M337.6,359c-1.4-7.8-5.9-15.1-9.8-21.9c-2.4-4.2-6-10.6-10.9-13.1c0.1-1,0.2-2,0.2-2.9
		c0.2-5.1-1-10.4-1.7-15.4c-0.9-5.7-0.7-11.7-0.8-17.5c0-12.2,0.8-24.3,0.8-36.5c0.1-13-0.1-25.9-0.1-38.9c0-12.3-0.4-24.6,0.1-36.8
		c0.3-8.3,1.4-16.8,0.3-25c5.1-3.4,5.6-12.6,3.9-18.9c2.7-2.6,4.6-5.7,5.2-9.5c0.5-3.1,0-5.5-1.1-7.4c6-0.2,5.8-9.8-0.4-10
		c-1.6-0.1-3.2,0-4.8,0.2c-0.5-2.4-1.2-4.7-2.2-6.9c-3.1-6.5-7.7-12.2-11.2-18.4c-6.2-11-12.7-23.1-25.5-27.2
		c-1.5-0.5-2.8-0.3-3.8,0.3c-0.3-0.7-0.8-1.3-1.5-1.8c-7.2-5.5-14.7-10-23.1-13.4c-8.6-3.6-18-6.8-27.4-7.3
		c-8.9-0.4-19,1.2-27.3,4.1c-3.8,1.3-7.7,2.7-11.4,4.4c-1,0.4-2.1,1.3-3.2,2.2c-0.7-0.2-1.5-0.2-2.3,0c-2.9,0.8-5.7,1.6-8.3,3.3
		c-0.3,0.2-0.6,0.5-0.9,0.8c-0.6,0.1-1.1,0.4-1.7,0.8c-11.5,8.5-22.8,17-31.3,28.7c-4.4,6.1-8,13.2-11.2,20
		c-1.3,2.7-2.1,5.5-3.1,8.3c-0.5,1.4-1.4,1.8-0.3,2c-1.8-0.3-3.5-1.4-5.3-1.9c-5.9-1.8-8.5,6.9-3.5,9.3c-0.4,1.2-0.4,2.6,0.3,4
		c0.7,1.4,1.7,2.6,2.8,3.7c0.2,0.2-0.9,5.5-0.9,6.2c0.1,2.8,2.1,4.6,4.5,4.9c-0.2,2.4,0.4,4.6,1.5,6.5c-1.4,0.9-2.3,2.5-2.5,4.3
		c-0.4,3.1,0.7,6.1,1.6,9c1,3.3,1.2,7,1.8,10.5c1,5.6,0.3,11,1.3,16.4c-1.1,1.1-1.7,2.7-1.1,4.7c0.6,2.2,1.2,4.4,1.8,6.6
		c-3.5,1.5-3.7,6.8-0.7,8.8c-1.7,14.8-1.6,29.7-0.4,44.5c0.3,3.1,0.6,6.1,1.1,9.1c-1.6,0.7-2.9,2.2-2.8,4.4c0.1,10-4.5,23,1.7,31.3
		c-0.2,2.1-0.4,4.2-0.6,6.3c-0.8,9.5,0.1,19,0.2,28.5c-2.1,0.5-4,1.8-5.6,3.6c-2,2.4-2.6,5.3-2.3,8.1c-4.7,0.5-5.3,6.5-2.2,8.9
		c-1,0-1.9,0.1-2.9,0.1c-4.6,0.2-6.3,5.4-3.6,8.4c-4.1,0.5-6.6,6.7-2.1,9.3c4.3,2.5,9.1,2,13.9,1.7c7.3-0.4,14.8,0,22.1,0
		c1,0,1.8-0.2,2.5-0.6c0.7,0.4,1.5,0.6,2.5,0.6c11.2,0.1,22.3,1.3,33.5,1.5c2.1,0,3.5-1,4.3-2.4c10.5,0.3,21,0.4,31.6,0.4
		c23,0.1,46.1,2.1,69.2,0.9c1.3-0.1,2.4-0.5,3.2-1.2c2.1,0.6,4.3,0.9,6.5,1c5.6,0.4,11.3,0.5,17,0.6c7.6,0.1,15.1,2.6,22.7,1.5
		C337,364.7,338.1,361.4,337.6,359z M211.3,176.6c-0.1,15.3-1.7,30.5-2.5,45.8c-0.2,4.1-0.1,11.1,1.9,16.3c-0.9,5-0.7,10.2-0.5,15.4
		c0.3,7.7,0.1,15.4,0.1,23.1c0,16.1,0.4,32.2-2.8,48c-2.7,2-3.9,4.8-3.1,7.6c-0.5,0.5-1,0.9-1.6,1.2c0,0-0.1,0-0.1,0.1
		c-12.7-0.3-25.4-0.3-38.1,0c-5.6,0.2-11.1,0.3-16.7,0.5c1-3-0.1-6.1-2.1-9c-0.6-0.9-1.6-2-2.6-3.2c0-0.1-0.1-0.2-0.1-0.4
		c-0.4-1.4-1-2.7-1.6-3.9c1.7-17,3.3-34.1,2.5-51.3c-0.5-11.8-1.8-23.4-1.5-35.3c0.3-12.8,1.2-25.5,1.3-38.2c0-2.1-1.1-3.5-2.5-4.3
		c0.2-1.7,0.4-3.3,0.6-5c0.4-1.7,0.7-3.5,0.9-5.3c0.6-5.1,0.5-10.2,0.5-15.3c0-1.1-0.3-1.9-0.7-2.7c1.1-4.4,1.9-8.9,2.3-13.4
		c0-0.1,0-0.3,0-0.4c0.5-0.8,1-1.7,1.4-2.7c1.4-3.7,1.4-7.7-1-10.8c0.4-0.7,0.8-1.5,1.1-2.3c0.5-1.2,0.7-2.5,0.5-3.7
		c1.5-1.1,2.6-2.7,3.3-5c0.1-0.4,0.2-0.9,0.2-1.3c15.5,0.1,30.9,0.3,46.4,0.4c1.6,0,3.2,0,4.8,0c0.5,4.3,2.8,9.3,4.1,12.1
		C211.6,146.6,211.4,162.8,211.3,176.6z M295.8,310.4c0.8,3.6,1.6,7.1,2.3,10.7c-1.7,0.3-3.2,1.4-3.6,3.3c-3.1,1-4.2,4.1-3.8,7.5
		c-0.5,0.2-0.9,0.5-1.4,0.8c-3.6,2.9-9.7,2.4-13.9,2.3c-5.5-0.1-10.9-0.7-16.4-0.8c-7.4,0-14.7-0.5-22.1-0.5c1.6-3.9,0-8.6-4.7-11.2
		c-0.6-0.3-1.2-0.6-1.9-0.8c0.5-7,1.7-13.9,1-20.9c-0.8-7.6-1-15.2-1-22.9c0-13.5,1-26.9-1.1-40.1c3.1-7.5,1.2-18.6,1-25.3
		c-0.2-7.6-1.3-15.2-1.8-22.7c-0.5-8.2-0.2-16.4-0.2-24.6c0-8.3-0.5-16.7,1.5-24.8c1.6-6.7,6.6-11.5,6.5-18.6
		c6.4-0.2,12.8-0.5,19.2-1.1c8-0.7,17.2-2.4,25.2-0.5c5.5,1.3,7.9,9.1,9.4,13.7c2.1,6.5,4,13.2,4.4,20c0.3,6.6,0.5,13.3,3.4,19.2
		c-5.4,10-3.6,22.9-3.5,33.8c0,2.8,1.9,4.4,4.1,4.8c-0.2,6.5-0.3,12.9-0.6,19.4c-0.8,18.3-0.9,36.7-1,55c-0.3,0.3-0.5,0.7-0.7,1.1
		C292.5,294.2,294.2,302.9,295.8,310.4z M281.7,106.2c-1.3,0.1-2.7,0.2-4.1,0.3c-1.1-1.2-2.7-1.9-4.7-1.5c-5,0.9-9.9,0.5-14.8,1.3
		c-0.8,0-1.5-0.1-2.3-0.1c-18.8-1.3-37.4-0.1-56.2,0c-9,0.1-18-0.8-27-1.3c-8.6-0.5-17.2,0.1-25.8-0.1c-3.5-0.1-7.2-0.3-10.4,0.8
		c0.6-4.4,1.6-8.7,3.5-12.9c1.9-4.1,5-7.2,7.9-10.5c2.7-3,4.8-6.5,6.9-9.9c4.7-7.2,11.5-10.4,18.9-14.3c3.9-2.1,7.4-4.4,11.7-5.7
		c4.1-1.2,8.4-2,12.5-3.2c8.5-2.4,16.7-5.1,25.6-4.8c8.1,0.2,16.5,1.9,24.1,4.5c8,2.7,14.1,8.8,20.7,13.9
		c6.7,5.2,12.9,12.1,20.4,15.9c0.9,0.4,1.7,0.6,2.5,0.6c1.2,2,2.4,4.1,3.5,6.3c1.9,3.7,4.3,7.4,5.5,11.5c0.7,2.6,0.9,5,1.6,7.3
		C295.1,104.4,288.5,105.7,281.7,106.2z"/>
</g>
<g id="outlines">
	<g>
		<path fill="none" stroke="#21262d" stroke-width="5" stroke-miterlimit="10" d="M433.1,218c-0.1,118.8-96.6,215.1-215.4,215.1
			C98.7,433.1,2.2,336.4,2.5,217.3C2.8,98.5,99.3,2.3,218.2,2.5C337,2.7,433.3,99.2,433.1,218z M329.4,104.1c-3.6,0-6.6-0.2-9.5,0
			c-3.1,0.2-4.3-0.8-5.6-3.9c-7.9-20-19.9-37-38-49.1c-22.4-15-47-20.9-73.9-16.2c-21.2,3.7-39,13.6-53.9,28.5
			c-10.4,10.5-18.7,22.9-23.3,37.2c-0.9,2.7-2.3,3.6-5,3.4c-3.3-0.2-6.5-0.1-9.5-0.1c-2.9,8.1,6.7,12.5,4.6,19.9
			c-0.1,0.3,0.9,0.9,1.3,1.4c0.9,1.4,2.1,2.7,2.4,4.2c1.5,7.4,3.9,14.9,3.9,22.3c0.3,55.1,0.2,110.3,0.1,165.4
			c0,1.4-0.1,3.4-0.9,4.1c-4,3.2-5.9,7.3-5.1,12.4c-2.3,0.2-3.9,0.3-5.8,0.5c-0.1,2.5-0.2,4.8-0.4,7.7c-5.1-0.9-5,2.5-4.8,5.9
			c0,0.8,0.2,2.1-0.3,2.4c-5.6,3.9-1.3,9.2-2.8,13.9c78.5,0,156.2,0,233.9,0c1.7-10.1,1.1-11.9-4.1-14c-1.2-3.1,2.3-8.2-4.1-8.7
			c-0.2-2.5-0.3-4.8-0.5-7.1c-2.1-0.3-3.8-0.5-4.4-0.6c-1.4-3.6-2.3-6.5-3.6-9.3c-1.1-2.4-3.6-4.5-3.6-6.8
			c-0.2-55.1-0.2-110.3-0.1-165.4c0-1.1,0-3.1,0.5-3.2c3.8-1.3,2.1-4.3,2.4-6.7c0.3-2.1,0.7-4.2,0.6-6.4c-0.3-6.7,7.1-11.6,4.6-18.9
			c-0.2-0.6,0.6-2.3,1.3-2.5C331.3,112.7,329.2,108.4,329.4,104.1z"/>
		<path fill="none" stroke="#21262d" stroke-width="5" stroke-miterlimit="10" d="M202.2,333.9c-17.1,0-34.5,0-52.7,0
			c0-1.9,0.2-3.8-0.1-5.7c-0.1-1.1-0.7-2.5-1.6-3.1c-3.3-2.6-4.5-5.7-4.4-9.9c0.1-54,0.1-108,0.1-162c0-2.2-1.4-5.2,2.4-6.1
			c0.4-0.1,0.6-2.1,0.5-3.3c-0.8-8.4,0.9-15.9,7.1-22c0.8-0.7,2.1-1.2,3.2-1.2c14.2-0.1,28.3-0.1,43.1-0.1c2.2,4.5,4.4,9.1,6.6,13.7
			c0.2,0.4,0.5,0.9,0.5,1.4c0.7,8.2,2,16.5,2,24.7c0.2,51.8,0.1,103.7,0.1,155.5c0,4-0.6,7.1-4.3,9.8
			C203,326.9,203.1,330.8,202.2,333.9z"/>
		<path fill="none" stroke="#21262d" stroke-width="5" stroke-miterlimit="10" d="M290.1,333.8c-18,0-35.6,0-53.6,0
			c0.5-4.4,0-8.2-4.3-10.7c-1.2-0.7-1.7-3.5-1.7-5.4c-0.1-55.5-0.2-111,0.1-166.5c0-7.1,2.1-14.3,3.9-21.3c1.7-6.7,6-9.5,12.8-9.5
			c10.3,0,20.7,0,31,0c7.4,0,10.5,1.9,12.6,9.2c1.3,4.4,1.3,9,2.2,13.5c0.4,1.9,1.6,3.7,2.3,5.6c0.4,1.2,0.6,2.5,0.6,3.8
			c0,54.7,0,109.3,0,164c0,1.9-0.4,4.7-1.6,5.4C289.9,324.9,289.8,329.1,290.1,333.8z"/>
		<path fill="none" stroke="#21262d" stroke-width="5" stroke-miterlimit="10" d="M137.6,103.8c9.6-29.3,40.6-54.3,72.9-57.3
			c48.2-4.5,81.3,27.9,91.6,57.3C247.2,103.8,192.5,103.8,137.6,103.8z"/>
	</g>
	<circle fill="none" stroke="#21262d" stroke-width="5" stroke-miterlimit="10" cx="217.8" cy="217.8" r="199.6"/>
</g>
</svg>
