<?xml version="1.0" encoding="utf-8"?>
<!-- Generator: Adobe Illustrator 17.1.0, SVG Export Plug-In . SVG Version: 6.00 Build 0)  -->
<!DOCTYPE svg PUBLIC "-//W3C//DTD SVG 1.1//EN" "http://www.w3.org/Graphics/SVG/1.1/DTD/svg11.dtd">
<svg version="1.1" id="Layer_1" xmlns="http://www.w3.org/2000/svg" xmlns:xlink="http://www.w3.org/1999/xlink" x="0px" y="0px"
	 viewBox="92.2 182.2 427.7 427.7" enable-background="new 92.2 182.2 427.7 427.7" xml:space="preserve">
<g>
	<path fill="#F2F2F2" d="M306,220.6c57.1,0,63.8,0.2,86.4,1.2c20.8,1,32.2,4.4,39.7,7.4c10,3.8,17.1,8.5,24.6,16
		c7.5,7.5,12.1,14.6,16,24.6c3,7.5,6.5,18.9,7.4,39.7c1.1,22.6,1.2,29.3,1.2,86.4s-0.2,63.8-1.2,86.4c-1,20.8-4.4,32.2-7.4,39.7
		c-3.8,10-8.5,17.1-16,24.6s-14.6,12.1-24.6,16c-7.5,3-18.9,6.5-39.7,7.4c-22.6,1.1-29.3,1.2-86.4,1.2s-63.8-0.2-86.4-1.2
		c-20.8-1-32.2-4.4-39.7-7.4c-10-3.8-17.1-8.5-24.6-16s-12.1-14.6-16-24.6c-3-7.5-6.5-18.9-7.4-39.7c-1.1-22.6-1.2-29.3-1.2-86.4
		s0.2-63.8,1.2-86.4c1-20.8,4.4-32.2,7.4-39.7c3.8-10,8.5-17.1,16-24.6s14.6-12.1,24.6-16c7.5-3,18.9-6.5,39.7-7.4
		C242.2,220.9,248.9,220.6,306,220.6 M306,182.2c-58.1,0-65.4,0.2-88.2,1.3c-22.7,1.1-38.4,4.7-51.9,9.9
		c-14.1,5.5-25.9,12.8-37.9,24.6c-11.8,11.8-19.2,23.8-24.6,37.9c-5.3,13.6-8.8,29.2-9.9,51.9c-1.1,22.8-1.3,30.1-1.3,88.2
		s0.2,65.4,1.3,88.2c1.1,22.7,4.7,38.4,9.9,51.9c5.5,14.1,12.8,25.9,24.6,37.9c11.8,11.8,23.8,19.2,37.9,24.6
		c13.6,5.3,29.2,8.8,51.9,9.9c22.8,1.1,30.1,1.3,88.2,1.3s65.4-0.2,88.2-1.3c22.7-1.1,38.4-4.7,51.9-9.9
		c14.1-5.5,25.9-12.8,37.9-24.6c11.8-11.8,19.2-23.8,24.6-37.9c5.3-13.6,8.8-29.2,9.9-51.9c1.1-22.8,1.3-30.1,1.3-88.2
		s-0.2-65.4-1.3-88.2c-1.1-22.7-4.7-38.4-9.9-51.9c-5.5-14.1-12.8-25.9-24.6-37.9c-11.8-11.8-23.8-19.2-37.9-24.6
		c-13.6-5.3-29.2-8.8-51.9-9.9C371.4,182.4,364.1,182.2,306,182.2L306,182.2z"/>
	<path fill="#F2F2F2" d="M306,286.2c-60.6,0-109.8,49.1-109.8,109.8S245.3,505.8,306,505.8S415.8,456.7,415.8,396
		S366.6,286.2,306,286.2z M306,467.2c-39.3,0-71.2-31.9-71.2-71.2s31.9-71.2,71.2-71.2s71.2,31.9,71.2,71.2S345.3,467.2,306,467.2z"
		/>
	<circle fill="#F2F2F2" cx="420.2" cy="281.8" r="25.7"/>
</g>
</svg>
