<?xml version="1.0" encoding="utf-8"?>
<!-- Generator: Adobe Illustrator 17.1.0, SVG Export Plug-In . SVG Version: 6.00 Build 0)  -->
<!DOCTYPE svg PUBLIC "-//W3C//DTD SVG 1.1//EN" "http://www.w3.org/Graphics/SVG/1.1/DTD/svg11.dtd">
<svg version="1.1" id="Layer_1" xmlns="http://www.w3.org/2000/svg" xmlns:xlink="http://www.w3.org/1999/xlink" x="0px" y="0px"
	 viewBox="85.8 174.8 442.4 442.4" enable-background="new 85.8 174.8 442.4 442.4" xml:space="preserve">
<path fill="#F2F2F2" d="M307,174.8c-122.4,0-221.2,99.1-221.2,221.2c0,122.4,99.1,221.2,221.2,221.2c122.4,0,221.2-99.1,221.2-221.2
	S429.4,174.8,307,174.8L307,174.8z M408.5,494.1c-4,6.6-12.4,8.5-19,4.5c-52.1-31.7-117.4-38.9-194.5-21.4
	c-7.4,1.6-14.8-2.9-16.4-10.3c-1.6-7.4,2.9-14.8,10.3-16.7c84.3-19.3,156.7-11.1,214.9,24.6C410.3,479.1,412.4,487.5,408.5,494.1z
	 M435.4,433.9c-5,8.2-15.6,10.6-23.8,5.8c-59.5-36.5-150.1-47-220.4-25.9c-9.3,2.6-18.8-2.4-21.4-11.4c-2.6-9.3,2.4-18.8,11.6-21.4
	c80.4-24.3,180.3-12.7,248.7,29.3C438.1,415.1,440.5,425.7,435.4,433.9L435.4,433.9z M437.8,371c-71.4-42.3-189-46.3-257.2-25.6
	c-10.8,3.4-22.5-2.9-25.9-13.7c-3.4-10.8,2.9-22.5,13.7-25.9c78.2-23.8,208.3-19,290.2,29.6c9.8,5.8,13,18.5,7.1,28.3
	C460.5,373.6,447.6,376.8,437.8,371L437.8,371z"/>
</svg>
