<?xml version="1.0" encoding="utf-8"?>
<!-- Generator: Adobe Illustrator 17.1.0, SVG Export Plug-In . SVG Version: 6.00 Build 0)  -->
<!DOCTYPE svg PUBLIC "-//W3C//DTD SVG 1.1//EN" "http://www.w3.org/Graphics/SVG/1.1/DTD/svg11.dtd">
<svg version="1.1" id="Layer_1" xmlns="http://www.w3.org/2000/svg" xmlns:xlink="http://www.w3.org/1999/xlink" x="0px" y="0px"
	 viewBox="122.2 255 379.4 308.2" enable-background="new 122.2 255 379.4 308.2" xml:space="preserve">
<path fill="#F2F2F2" d="M501.6,291.5c-14,6.2-28.9,10.4-44.7,12.2c16-9.7,28.4-24.9,34.2-43c-15.1,9-31.7,15.4-49.4,18.9
	c-14.2-15.1-34.4-24.6-56.8-24.6c-50.2,0-87.1,46.9-75.8,95.5c-64.7-3.2-122-34.2-160.4-81.3c-20.3,34.9-10.5,80.7,24,103.9
	c-12.8-0.4-24.7-3.9-35.3-9.7c-0.8,36.1,25,69.8,62.4,77.2c-11,3-22.9,3.7-35.1,1.3c9.9,31,38.6,53.4,72.7,54
	c-32.8,25.6-73.9,37.1-115.2,32.3c34.4,22.1,75.3,34.9,119.3,34.9c144.4,0,226-122,221.1-231.4C478,320.8,491.2,307.2,501.6,291.5z"
	/>
</svg>
